<svg xmlns="http://www.w3.org/2000/svg" viewBox="0 0 900 580" width="900" height="580" role="img"><rect width="900" height="580" rx="14" fill="#ffffff" stroke="#e3e8ef"/><text x="24" y="34" font-family="Inter,Arial,sans-serif" font-size="18" font-weight="800" fill="#0f1f33">Converse Roofer service area</text><circle cx="450" cy="300" r="90" fill="none" stroke="#2b8ccf" stroke-opacity=".35" stroke-dasharray="6 6"/><text x="452" y="226" font-family="Inter,Arial,sans-serif" font-size="11" fill="#2b8ccf">~5 mi</text><circle cx="450" cy="300" r="180" fill="none" stroke="#2b8ccf" stroke-opacity=".35" stroke-dasharray="6 6"/><text x="452" y="136" font-family="Inter,Arial,sans-serif" font-size="11" fill="#2b8ccf">~10 mi</text><circle cx="450" cy="300" r="270" fill="none" stroke="#2b8ccf" stroke-opacity=".35" stroke-dasharray="6 6"/><text x="452" y="46" font-family="Inter,Arial,sans-serif" font-size="11" fill="#2b8ccf">~15 mi</text><circle cx="450" cy="300" r="180" fill="#f26a1b" fill-opacity=".06"/><circle cx="450" cy="300" r="10" fill="#f26a1b"/><circle cx="450" cy="300" r="18" fill="none" stroke="#f26a1b" stroke-width="2"/><text x="464" y="305" font-family="Inter,Arial,sans-serif" font-size="16" font-weight="800" fill="#0f1f33">Converse · home base</text><circle cx="380" cy="340" r="6" fill="#0f1f33"/><text x="394" y="345" font-family="Inter,Arial,sans-serif" font-size="13" font-weight="600" fill="#0f1f33">Kirby</text><circle cx="340" cy="270" r="6" fill="#0f1f33"/><text x="354" y="275" font-family="Inter,Arial,sans-serif" font-size="13" font-weight="600" fill="#0f1f33">Windcrest</text><circle cx="500" cy="215" r="6" fill="#0f1f33"/><text x="514" y="220" font-family="Inter,Arial,sans-serif" font-size="13" font-weight="600" fill="#0f1f33">Universal City</text><circle cx="430" cy="200" r="6" fill="#0f1f33"/><text x="444" y="205" font-family="Inter,Arial,sans-serif" font-size="13" font-weight="600" fill="#0f1f33">Live Oak</text><circle cx="470" cy="130" r="6" fill="#0f1f33"/><text x="484" y="135" font-family="Inter,Arial,sans-serif" font-size="13" font-weight="600" fill="#0f1f33">Selma</text><circle cx="590" cy="150" r="6" fill="#0f1f33"/><text x="604" y="155" font-family="Inter,Arial,sans-serif" font-size="13" font-weight="600" fill="#0f1f33">Schertz</text><circle cx="670" cy="110" r="6" fill="#0f1f33"/><text x="684" y="115" font-family="Inter,Arial,sans-serif" font-size="13" font-weight="600" fill="#0f1f33">Cibolo</text><circle cx="640" cy="360" r="6" fill="#0f1f33"/><text x="654" y="365" font-family="Inter,Arial,sans-serif" font-size="13" font-weight="600" fill="#0f1f33">St. Hedwig</text><circle cx="560" cy="60" r="6" fill="#0f1f33"/><text x="574" y="65" font-family="Inter,Arial,sans-serif" font-size="13" font-weight="600" fill="#0f1f33">Garden Ridge</text><circle cx="560" cy="235" r="6" fill="#0f1f33"/><text x="574" y="240" font-family="Inter,Arial,sans-serif" font-size="13" font-weight="600" fill="#0f1f33">Randolph AFB</text><circle cx="250" cy="360" r="6" fill="#0f1f33"/><text x="264" y="365" font-family="Inter,Arial,sans-serif" font-size="13" font-weight="600" fill="#0f1f33">NE San Antonio</text><text x="24" y="560" font-family="Inter,Arial,sans-serif" font-size="12" fill="#5c6979">Fast response inside the 10-mile ring. Schematic, not to scale.</text></svg>